# xmcd CD database file
#
# Track frame offsets:
#	150
#	18348
#	38259
#	58697
#	82805
#	94612
#	112461
#	131173
#	148310
#	158832
#	172929
#	191046
#	208904
#
# Disc length: 3070 seconds
#
# Revision: 1
# Processed by: cddbd v1.4PL0 Copyright (c) Steve Scherf et al.
# Submitted via: CDex 1.40Beta4
#
DISCID=b30bfc0d
DTITLE=Luiz Carlos Borges - Temperando
DYEAR=1900
DGENRE=Country
TTITLE0=My hijo me ha Pedido um chamamé
TTITLE1=Vidro dos olhos
TTITLE2=Caçapava
TTITLE3=Na Beira do Aguapey
TTITLE4=Tristeza
TTITLE5=Xucro de Viamão
TTITLE6=Pedro Canoero
TTITLE7=Caçarola
TTITLE8=Meninos da JK
TTITLE9=Pueblero de Allá Ité
TTITLE10=Milongão de Laçar Touro
TTITLE11=Na Chama do Chamamé
TTITLE12=Fogo no Fole
EXTD=ID3G:   2
EXTT0=
EXTT1=
EXTT2=
EXTT3=
EXTT4=
EXTT5=
EXTT6=
EXTT7=
EXTT8=
EXTT9=
EXTT10=
EXTT11=
EXTT12=
PLAYORDER=
